{"title":"Star Wars Episode VII The Force Awakens (2015) BRRip XviD-MAX","uid":13982071,"size":1666451585,"categoryP":"video","categoryS":"movies","magnet":"?xt=urn:btih:db82d05d47134f0986011e75bdf36efdcc606d98&amp;dn=Star+Wars+Episode+VII+The+Force+Awakens+%282015%29+BRRip+XviD-MAX&amp;tr=udp%3A%2F%2Ftracker.leechers-paradise.org%3A6969&amp;tr=udp%3A%2F%2Fzer0day.ch%3A1337&amp;tr=udp%3A%2F%2Fopen.demonii.com%3A1337&amp;tr=udp%3A%2F%2Ftracker.coppersurfer.tk%3A6969&amp;tr=udp%3A%2F%2Fexodus.desync.com%3A6969","seeders":12,"leechers":7,"uploader":"extremezone","files":4,"time":1458687935,"description":"http://i.imgur.com/8nUsIpx.jpg\r\n\r\nScreens:\r\n \nhttp://i.imgur.com/bNbiNlO.png \nhttp://i.imgur.com/UrPaCEm.png \nhttp://i.imgur.com/7QluRh5.png \nhttp://i.imgur.com/u8oGX5s.png\r\n\r\nScreenCaps:\r\n \nhttp://i.imgur.com/9ey46w2.jpg\r\n\r\nStar Wars Episode VII The Force Awakens (2015) BRRip XviD-MAX\r\nFormat                                   : AVI\r\nFormat/Info                              : Audio Video Interleave\r\nFormat profile                           : OpenDML\r\nFormat settings                          : rec\r\nFile size                                : 1.55 GiB\r\nDuration                                 : 2h 18mn\r\nOverall bit rate                         : 1 605 Kbps\r\nWriting application                      : VirtualDubMod 1.5.10.2 (build 2542/release)\r\nWriting library                          : VirtualDubMod build 2542/release\r\nOriginal source form                     : MAX TORRENTZ\r\nCopyright                                : SIGISMUNT\r\n\r\nVideo\r\nID                                       : 0\r\nFormat                                   : MPEG-4 Visual\r\nFormat profile                           : Advanced   \r\nFormat settings, BVOP                    : 2\r\nFormat settings, QPel                    : No\r\nFormat settings, GMC                     : No warppoints\r\nFormat settings, Matrix                  : Default (MPEG)\r\nCodec ID                                 : XVID\r\nCodec ID/Hint                            : XviD\r\nDuration                                 : 2h 18mn\r\nBit rate                                 : 1 216 Kbps\r\nWidth                                    : 720 pixels\r\nHeight                                   : 304 pixels\r\nDisplay aspect ratio                     : 2.35:1\r\nFrame rate                               : 23.976 fps\r\nColor space                              : YUV\r\nChroma subsampling                       : 4:2:0\r\nBit depth                                : 8 bits\r\nScan type                                : Progressive\r\nCompression mode                         : Lossy\r\nBits/(Pixel*Frame)                       : 0.232\r\nStream size                              : 1.17 GiB (76%)\r\nWriting library                          : XviD 1.2.1 (UTC 2008-12-04)\r\n\r\nAudio\r\nID                                       : 1\r\nFormat                                   : AC-3\r\nFormat/Info                              : Audio Coding 3\r\nMode extension                           : CM (complete main)\r\nFormat settings, Endianness              : Big\r\nCodec ID                                 : 2000\r\nDuration                                 : 2h 18mn\r\nBit rate mode                            : Constant\r\nBit rate                                 : 384 Kbps\r\nChannel(s)                               : 6 channels\r\nChannel positions                        : Front: L C R, Side: L R, LFE\r\nSampling rate                            : 48.0 KHz\r\nBit depth                                : 16 bits\r\nCompression mode                         : Lossy\r\nStream size                              : 379 MiB (24%)\r\nAlignment                                : Aligned on interleaves\r\nInterleave, duration                     : 64 ms (1.53 video frames)\r\nInterleave, preload duration             : 192 ms\r\n\r\nSource: BLURAY (clean encode/source, perfect a/v/sync quality,sample included)\r\nThis torrent is not seedbox supported,please seed it to the MAX\r\n\r\nUploader Note: If you think image it's a little dark on your device then\r\nVLC-&gt;Ctrl+E-&gt;Video Effects-&gt;Image adjust-&gt;Brightness-&gt;Close, simple as 1,2,3\r\nso no more complaints about this please,thank you\r\n\r\nNote: If you have something as early releases, seedboxes  http://torentz.3xforum.ro\r\n\r\nHow To Get Your MAXSPEED (uTorrent)\r\n\r\nTorrent Client - Preferences - Bandwidth - Number of connections - Set aprox. 500 for each\r\nTorrent Client - Preferences - BiTorrent - Protocol Encryption - Forced\r\nBandwidth Allocation - High (Set download/upload limit - Unlimited)\r\nStop Other Active Torrents - Start downloading and wait for connections.\r\nEnjoy and Seed for at least 1:1 ratio. Don't forget to say thanks/leave reviews.\r\nFor other 480p, 720p, 1080p, x264, mkv, Bluray HD downloads use search function.\r\nIf screens/Caps image host is dead googlesearch &quot;release name&quot;+&quot;screens&quot; or &quot;sample&quot;.\r\nGreets to all actual/future p2p/scene QUALITY groups and affiliate websites.\r\nDon't trust IMDb robots/bots bad ratings,always watch some trailers first.\r\nIgnore stupid comments/fake/mislabeled/no-DVDrips/CAM/TS/RAR uploads.\r\nPlease spread this release/torrent to your friends/forums/etc.\r\nIf you need translation subs visit some subtitles sites.\r\nReport if you see online streaming or other spam links.\r\nMAXSPEED free full movie downloads 2008-2016.\r\nRecommended movie player VLC PLAYER","torrent":{"xt":"urn:btih:db82d05d47134f0986011e75bdf36efdcc606d98","amp;dn":"Star+Wars+Episode+VII+The+Force+Awakens+%282015%29+BRRip+XviD-MAX","amp;tr":["udp%3A%2F%2Ftracker.leechers-paradise.org%3A6969","udp%3A%2F%2Fzer0day.ch%3A1337","udp%3A%2F%2Fopen.demonii.com%3A1337","udp%3A%2F%2Ftracker.coppersurfer.tk%3A6969","udp%3A%2F%2Fexodus.desync.com%3A6969"],"infoHash":"db82d05d47134f0986011e75bdf36efdcc606d98","infoHashBuffer":{"type":"Buffer","data":[219,130,208,93,71,19,79,9,134,1,30,117,189,243,110,253,204,96,109,152]},"announce":[],"urlList":[]}}